<?xml version="1.0" encoding="UTF-8" standalone="no"?>
<!-- Created with Inkscape (http://www.inkscape.org/) -->

<svg
   width="119.88544mm"
   height="107.98247mm"
   viewBox="0 0 119.88544 107.98247"
   version="1.1"
   id="svg1"
   xml:space="preserve"
   xmlns="http://www.w3.org/2000/svg"
   xmlns:svg="http://www.w3.org/2000/svg"><defs
     id="defs1" /><path
     style="fill:#050000;fill-rule:evenodd;stroke:none;stroke-width:1.57072"
     d="m 20.266005,8.338188 c 23.891659,-11.316637 48.003533,-10.916733 72.409003,0 3.15509,37.253198 -4.49069,66.181858 -35.94038,76.891198 C 20.354077,72.031526 18.372872,41.192103 20.266005,8.338188 m 3.375358,3.08097 c 21.998607,-10.798198 43.850375,-10.501977 65.570175,0 2.87632,33.698168 -2.62704,57.190698 -32.5063,69.410948 C 23.3772,66.195336 21.95371,41.177312 23.641363,11.419158"
     id="path1" /><path
     style="fill:#050000;fill-rule:evenodd;stroke:none;stroke-width:1.57072"
     d="m 34.325189,13.32761 c 1.247444,6.369328 -2.582864,13.108949 1.276781,19.700467 -2.42146,2.3404 -5.239144,1.333076 -8.115565,-0.681333 0.08817,3.747568 2.260021,7.480247 5.840859,11.15369 l -7.249702,0.873962 c 1.746387,5.08064 5.943571,5.836 8.878674,8.78379 -1.746384,0.41452 -3.213911,1.05162 -4.329292,1.88111 1.555636,1.70342 3.169917,3.33274 5.532699,4.78441 -0.64574,0.57771 -1.02727,1.61456 -0.909858,2.47376 2.568169,-0.71107 5.136389,-0.84446 7.132198,0.14825 1.364811,0.69612 3.258035,2.36989 3.859737,4.26591 3.668908,11.47962 17.390458,11.4055 20.325518,-0.20743 1.83445,-4.1475 6.11971,-5.76203 11.56429,-4.4882 0.0312,-0.81475 -0.52824,-1.61453 -1.20332,-2.19224 2.34809,-1.45167 3.99167,-3.081 5.5327,-4.78441 -1.13011,-0.82952 -2.56826,-1.46647 -4.32938,-1.88114 2.97918,-2.94779 7.14694,-3.70315 8.86407,-8.78379 l -7.22031,-0.873962 c 3.58079,-3.673445 5.76739,-7.406125 5.82616,-11.153689 -2.8765,2.014408 -5.7088,3.02173 -8.11566,0.681358 3.87439,-6.591546 0.0312,-13.331164 1.27687,-19.700493 -4.52007,0.977646 -7.60201,6.739644 -11.90187,8.872618 h -10.24348 -0.0588 -0.0881 -10.228873 C 41.941495,20.067241 38.859688,14.30524 34.324956,13.327625"
     id="path2" /><path
     style="fill:#248bc4;fill-rule:evenodd;stroke:none;stroke-width:1.57072"
     d="m 37.850283,18.883235 13.472083,14.575412 c 2.010552,1.881254 6.310412,6.606317 6.222432,10.146544 v 17.137885 c 0,2.14779 -1.40894,0.96284 -3.05252,1.51088 -3.301976,1.09602 0.0882,5.4953 2.11323,5.65834 0.96867,0.11836 0.71907,1.64413 0.71907,1.85161 -0.0312,2.13285 -2.45077,1.61453 -2.74418,1.4664 -4.300043,-1.8368 -5.591474,-3.31801 -5.723578,-9.53915 -3.448688,-1.64424 -4.167754,-4.8141 -5.8848,-8.44313 0.03115,1.97 0,3.89573 1.041962,5.49534 0.763108,1.18495 -0.352188,0.93314 -0.54302,0.90364 -3.008473,-0.87393 -5.620679,-3.06623 -7.807367,-4.76965 1.834451,-0.75539 3.213957,-1.85157 4.329292,-3.15494 -1.834454,0.0311 -2.803034,-0.29619 -4.270564,-1.71824 l -5.18047,-4.44372 c 4.534733,1.18491 8.218285,-0.48886 9.788572,-3.64395 -1.291471,1.347988 -2.597554,1.762688 -3.844999,0.68136 l -0.528325,-0.459079 -0.0312,-0.05919 v 0.01166 c -2.03989,-1.955351 -3.683554,-3.806896 -4.593415,-5.791863 3.874341,1.244334 9.025423,-1.821895 9.377659,-7.095046 -0.719116,0.770222 -1.408848,1.733009 -2.392123,2.207035 -2.245372,-5.24362 0.08817,-8.606015 -0.4696,-12.531296"
     id="path3" /><path
     style="fill:#050000;fill-rule:evenodd;stroke:none;stroke-width:1.57072"
     d="m 74.882488,9.133098 -8.05688,11.864699 h -0.19058 -1.23283 -18.990049 L 38.076455,9.133098 49.508694,15.84312 c -1.717042,0.148245 -1.761074,0.785049 -0.616395,3.021733 h 5.547349 v -1.45164 c 0,-1.688567 -1.26209,-2.488463 -3.199268,-2.814338 l 5.606078,-9.168869 4.93095,9.257728 c -1.80506,0.32593 -3.05251,1.318281 -3.05251,2.79954 v 1.377579 h 5.38587 c 1.59958,-2.088561 0.85117,-3.140207 -0.61636,-3.229126 z"
     id="path4" /><path
     style="fill:#050000;fill-rule:evenodd;stroke:none;stroke-width:1.57072"
     d="m 49.989924,48.566906 c -4.857578,-0.72578 -7.161629,-7.924594 -9.480371,-11.775839 l 9.040113,5.199171 c 3.199262,1.33311 4.314602,1.851549 6.838832,1.584944 -1.541,2.221804 -3.66891,4.962104 -6.398574,4.991724 m 2.744314,-4.369628 c -0.60171,0.414966 -2.392078,2.044118 -3.404698,1.392378 -1.496915,-1.022062 -1.92248,-2.844019 -2.56822,-4.043823 2.670937,1.910817 3.844953,2.370016 5.972918,2.651445"
     id="path5" /><path
     style="fill:#050000;fill-rule:evenodd;stroke:none;stroke-width:1.57072"
     d="m 51.37962,35.968035 c 2.245328,1.925606 4.006408,4.265973 4.974988,7.406211 -2.89106,-2.903254 -6.163699,-5.243591 -11.755082,-6.147172 2.729616,-1.007233 5.752784,-0.08905 6.897502,0.636946 0.19058,-0.873958 -0.03118,-1.244273 -0.117517,-1.895985"
     id="path6" /><path
     style="fill:#201d1d;fill-rule:evenodd;stroke:none;stroke-width:0.843622"
     d="m 40.624147,94.172096 c -2.942987,-5.31388 -10.313746,-5.68288 -13.373664,0"
     id="path7" /><path
     style="fill:#201d1d;fill-rule:evenodd;stroke:none;stroke-width:0.843622"
     d="m 37.627353,96.210646 3.248866,8.395194 -13.760611,-0.0278 3.014922,-8.367504 h -3.734913 c -0.665971,1.67902 -1.475949,3.77324 -2.447921,6.282564 -1.070972,2.78608 -1.754952,4.61271 -2.06095,5.48914 h 24.020412 c -0.30598,-0.87643 -0.989983,-2.70306 -2.060955,-5.48914 -0.972051,-2.509324 -1.79101,-4.603544 -2.438929,-6.282564"
     id="path8" /><path
     style="fill:#201d1d;fill-rule:evenodd;stroke:none;stroke-width:0.843622"
     d="m 87.845798,94.171746 1.37695,-3.84704 -14.00359,0.0278 c -1.77295,0 -4.79688,1.04246 -5.43585,3.81937"
     id="path9" /><path
     style="fill:#201d1d;fill-rule:evenodd;stroke:none;stroke-width:0.843622"
     d="m 69.765588,96.210646 v 5.931994 c 0,1.50376 0.52198,2.80455 1.57495,3.92082 1.16997,1.20856 2.74493,1.81742 4.72488,1.81742 h 13.26566 l -1.53,-3.75478 h -12.23064 c -0.86399,0 -1.74597,-0.44283 -2.04294,-1.63289 v -2.43553 h 14.59762 -0.42299 v -3.847034"
     id="path10" /><path
     style="fill:#201d1d;fill-rule:evenodd;stroke:none;stroke-width:0.843622"
     d="m 47.788435,94.171746 v -3.84704 h 11.285723 l 1.26894,0.0278 c 2.77191,0 5.28284,1.28234 6.78584,3.81937"
     id="path11" /><path
     style="fill:#201d1d;fill-rule:evenodd;stroke:none;stroke-width:0.843622"
     d="m 67.920568,98.507826 c 0,1.642144 -0.30596,3.173574 -0.93598,4.575834 -0.66596,1.46684 -1.61992,2.63847 -2.8619,3.48723 -1.34995,0.94099 -2.96095,1.41155 -4.81487,1.41155 H 47.887126 V 96.210656 l 3.797902,0.0645 v 7.832464 l 8.11782,0.019 0.44999,-0.0645 c 1.22392,-0.0738 2.21392,-0.66424 2.96087,-1.7713 0.66601,-1.07936 0.99898,-2.629264 0.99898,-4.142234 0,-0.71038 -0.0361,-1.35617 -0.11704,-1.93736 h 3.65391 c 0.11704,0.71035 0.17099,1.47608 0.17099,2.29713"
     id="path12" /><path
     style="fill:#201d1d;fill-rule:evenodd;stroke:none;stroke-width:0.843622"
     d="m 19.700249,94.171746 1.565914,-3.84704 -13.940633,0.0278 c -2.078934,0 -5.777847,0.35978 -6.380832,3.81937"
     id="path13" /><path
     style="fill:#201d1d;fill-rule:evenodd;stroke:none;stroke-width:0.843622"
     d="m 0.881805,96.376676 v 0.0278 c 0.01927,0.0278 0.02702,0.0645 0.0361,0.0923 l 0.02702,0.083 h 0.0096 c 1.115978,2.79533 3.923897,3.487254 6.110848,3.487254 h 7.307772 c 0.557979,0 1.808998,0.17529 2.114973,0.52584 0.809955,0.68268 0.566991,2.32484 -0.0096,2.9983 -0.323936,0.37825 -1.565915,0.57197 -2.105934,0.57197 L 1.232964,104.11694 0,107.93627 l 15.218579,0.0462 c 1.952981,0 3.509975,-0.61811 4.670862,-1.8359 1.044001,-1.10709 1.566034,-2.45398 1.566034,-4.04996 0,-1.58678 -0.522033,-2.933744 -1.556994,-4.050004 -1.15197,-1.21775 -2.708964,-1.82664 -4.679902,-1.82664 H 7.919772 c -0.07199,0 -0.135114,0 -0.188931,-0.01 h -6.90282 c 0.0096,0.0552 0.0361,0.11075 0.05405,0.16596"
     id="path14" /><path
     style="fill:#201d1d;fill-rule:evenodd;stroke:none;stroke-width:0.843622"
     d="m 109.04969,94.171746 1.55699,-3.84704 -13.940602,0.0278 c -2.07897,0 -5.77786,0.35978 -6.37186,3.81937"
     id="path15" /><path
     style="fill:#201d1d;fill-rule:evenodd;stroke:none;stroke-width:0.843622"
     d="m 90.222238,96.376676 0.01,0.0278 c 0.019,0.0278 0.027,0.0645 0.0361,0.0923 l 0.027,0.083 c 1.12497,2.79533 3.93292,3.487254 6.11086,3.487254 H 103.723 c 0.54897,0 1.79092,0.17529 2.10594,0.52584 0.80995,0.68268 0.56699,2.32484 -0.01,2.9983 -0.32406,0.37825 -1.56601,0.57197 -2.097,0.57197 l -13.814622,-0.0462 1.74595,3.81933 12.905632,0.0462 c 1.95298,0 3.50998,-0.61811 4.67991,-1.8359 1.03495,-1.10709 1.55697,-2.45398 1.55697,-4.04996 0,-1.58678 -0.513,-2.933744 -1.54796,-4.050004 -1.15197,-1.21775 -2.71797,-1.82664 -4.68892,-1.82664 h -7.298782 c -0.0629,0 -0.12601,0 -0.18006,-0.01 h -6.91183 c 0.027,0.0552 0.0361,0.11075 0.0541,0.16596"
     id="path16" /><path
     style="fill:#201d1d;fill-rule:nonzero;stroke:none;stroke-width:1.15408"
     d="m 116.51239,89.419906 h -1.26813 v -1.51448 h 1.40354 c 0.3324,0 0.57868,0.0758 0.72638,0.21456 0.14787,0.13887 0.2339,0.31553 0.2339,0.53006 0,0.15139 -0.0491,0.27768 -0.12327,0.40385 -0.086,0.12619 -0.19692,0.22716 -0.34474,0.27765 -0.16005,0.0506 -0.36935,0.0883 -0.62788,0.0883 m 2.00678,2.44838 -0.72636,-1.14846 c -0.14786,-0.23978 -0.30784,-0.44173 -0.48018,-0.60579 -0.086,-0.0758 -0.20933,-0.15139 -0.35704,-0.22716 0.41862,-0.0631 0.73873,-0.20193 0.94802,-0.41649 0.20937,-0.22715 0.30784,-0.49219 0.30784,-0.82034 0,-0.25243 -0.0615,-0.47957 -0.18482,-0.69411 -0.13547,-0.20194 -0.2954,-0.34075 -0.50478,-0.42911 -0.19691,-0.0758 -0.49248,-0.11366 -0.88644,-0.11366 h -1.96989 v 4.5434 h 0.57865 v -2.01928 h 0.67718 c 0.14787,0 0.25845,0.0127 0.33238,0.0251 0.086,0.0127 0.18482,0.0631 0.27087,0.11366 0.086,0.0631 0.18482,0.16407 0.29542,0.31552 0.11093,0.13886 0.25843,0.34077 0.4186,0.6184 l 0.59095,0.94654 h 0.59098 c -0.52939,0.49223 -1.21883,0.80771 -1.98219,0.80771 -1.62517,0 -2.94253,-1.363 -2.94253,-3.01629 0,-1.66591 1.31736,-3.01632 2.94253,-3.01632 1.61285,0 2.93021,1.35041 2.93021,3.01632 0,0.82035 -0.32027,1.57757 -0.84956,2.12026 m -2.08065,-5.65402 c -1.90831,0 -3.4596,1.57757 -3.4596,3.53376 0,1.94355 1.55129,3.53375 3.4596,3.53375 1.89601,0 3.44728,-1.5902 3.44728,-3.53375 0,-1.95619 -1.55127,-3.53376 -3.44728,-3.53376"
     id="path17" /></svg>
